PathFileType	4	(X/Y/Z)	c:/Users/goper/Files/vsCode/490R/osim_files/A05/A05_Fast_01.trc
DataRate	CameraRate	NumFrames	NumMarkers	Units                	OrigDataRate	OrigDataStartFrame	OrigNumFrames
250.00	250.00	8	36	mm	250.0	894	2383
                Frame#	Time	LPSIS			LASIS			LTH1			LTH2			LTH3			LTH4			LLFE			LMFE			LSH1			LSH2			LSH3			LSH4			LLMAL			LMMAL			LCAL			LMTP5			LTOE			LMTP1			RPSIS			RASIS			RTH1			RTH2			RTH3			RTH4			RLFE			RMFE			RSH1			RSH2			RSH3			RSH4			RLMAL			RMMAL			RCAL			RMTP1			RTOE			RMTP5		
		X1	Y1	Z1	X2	Y2	Z2	X3	Y3	Z3	X4	Y4	Z4	X5	Y5	Z5	X6	Y6	Z6	X7	Y7	Z7	X8	Y8	Z8	X9	Y9	Z9	X10	Y10	Z10	X11	Y11	Z11	X12	Y12	Z12	X13	Y13	Z13	X14	Y14	Z14	X15	Y15	Z15	X16	Y16	Z16	X17	Y17	Z17	X18	Y18	Z18	X19	Y19	Z19	X20	Y20	Z20	X21	Y21	Z21	X22	Y22	Z22	X23	Y23	Z23	X24	Y24	Z24	X25	Y25	Z25	X26	Y26	Z26	X27	Y27	Z27	X28	Y28	Z28	X29	Y29	Z29	X30	Y30	Z30	X31	Y31	Z31	X32	Y32	Z32	X33	Y33	Z33	X34	Y34	Z34	X35	Y35	Z35	X36	Y36	Z36

894	3.57200	817.67188	988.90442	327.22952	630.32056	943.12006	440.22888	832.57239	700.33618	489.40155	835.94769	656.85291	492.27798	774.27936	687.89746	510.62823	785.96442	646.46106	507.93918	837.45081	474.78030	489.03973	835.17792	470.03476	389.28137	912.57159	404.62747	498.43045	931.85242	364.57211	502.63211	859.95215	371.81583	491.00632	886.24066	336.41302	495.37637	1010.42566	147.33429	503.73145	1016.16919	152.49619	413.78119	1108.45361	123.71894	457.16953	910.66486	47.49873	522.72003	862.50659	53.26189	459.22775	902.78595	61.56124	411.66983	808.31830	987.95312	244.60468	620.80377	942.90369	145.11066	561.67694	593.23834	79.01592	538.51251	559.27362	87.03641	514.80347	624.71344	105.22488	497.99994	581.34888	111.48389	550.99506	509.44263	87.41056	0.00000	0.00000	0.00000	509.10178	250.47368	79.34148	496.71014	204.83659	85.83764	448.38104	262.01941	85.80344	443.95374	212.39659	88.35099	464.70648	101.75373	100.00727	417.32397	131.07028	183.06787	502.09952	60.32027	181.32838	290.64886	66.49658	161.70224	265.75586	84.34958	106.11024	332.17032	49.69310	52.40340
895	3.57600	812.99359	988.67230	326.40915	625.60419	943.39954	439.48373	827.56250	700.22852	488.50702	830.88983	656.80481	491.49503	769.40131	687.93237	509.82886	780.84283	646.40631	507.17856	832.24597	474.67047	488.53839	829.99152	469.77246	388.84460	906.59814	403.97333	496.91006	927.89276	365.50214	502.18790	855.97925	371.92731	490.64081	882.72321	337.00027	495.21979	1008.63708	149.10091	503.47580	1014.13733	154.19659	413.37521	1106.90344	126.68172	456.77203	910.23175	47.92748	522.69971	862.36719	53.72124	459.11606	902.42841	63.53697	409.62476	803.50336	987.91650	243.82758	615.74872	943.30865	144.29591	555.50397	595.04633	77.75529	532.17230	561.17035	85.37402	508.71753	626.43866	104.53867	491.78250	583.07544	110.23958	545.21167	510.44614	85.94136	0.00000	0.00000	0.00000	505.24835	250.86646	77.26056	493.14938	205.10408	84.13373	443.50998	261.50351	85.26990	438.78629	211.91504	87.88735	462.90475	101.69244	99.13594	416.11160	131.45131	182.08182	501.53699	61.18979	180.81715	289.57019	65.42361	161.00789	264.34390	81.26253	105.12719	331.51614	48.02777	51.34697
896	3.58000	808.13055	988.56378	325.62210	620.91345	943.84778	438.76361	822.52844	700.13000	487.62192	825.74756	656.75757	490.67511	764.38354	688.01605	509.02921	775.83124	646.50104	506.42764	826.83643	474.50885	488.07541	824.51190	469.50146	388.35181	902.02020	404.74298	496.38202	923.84003	366.39435	501.76337	851.83173	372.17667	490.40131	878.42523	336.18484	494.74365	1006.77332	151.03316	503.12814	1012.01019	155.98428	412.88016	1105.18201	129.85234	456.27744	909.32227	47.35862	523.02863	861.98883	53.60014	459.05469	0.00000	0.00000	0.00000	798.30408	988.01672	243.10977	610.81927	943.78851	143.52209	549.19550	596.95026	76.41616	525.71912	563.04718	83.70936	502.80222	628.27533	103.61873	485.80844	585.01550	108.85134	539.45563	511.53891	84.40565	0.00000	0.00000	0.00000	501.59836	251.18086	75.39797	490.07141	205.44734	82.43066	439.77264	261.36255	83.93245	0.00000	0.00000	0.00000	461.45892	101.74281	98.30952	413.89975	131.24313	181.07712	501.22409	61.83316	180.41060	289.06854	64.95847	160.90459	263.89252	79.68198	104.06586	331.39291	47.34992	50.78283
897	3.58400	803.57983	988.73035	324.83493	616.06885	944.20734	437.80908	817.40778	700.07233	486.67966	820.56360	656.63708	489.83163	759.25085	687.76831	508.44952	770.61108	646.55267	505.62717	821.06647	474.37308	487.62750	818.61664	469.17676	387.85388	897.17236	405.53195	495.87897	919.25647	367.47382	501.12402	847.33716	372.39777	490.03207	874.27417	336.70114	494.27615	1004.67767	153.08160	502.67035	1009.73090	157.93878	412.27710	1103.30408	133.19490	455.67316	908.90308	47.88766	522.92072	0.00000	0.00000	0.00000	0.00000	0.00000	0.00000	794.08453	988.63745	242.41441	605.94653	944.42426	142.88428	542.98730	598.69550	74.95420	520.17303	565.38092	81.71072	496.76495	629.90204	102.61445	0.00000	0.00000	0.00000	533.78192	512.78857	82.88291	514.68335	489.99020	225.01665	498.51541	251.67989	73.75919	487.48016	205.82188	81.06523	436.66483	261.35147	82.59104	435.01892	212.48537	83.98716	460.46973	101.87220	97.75954	412.31271	131.06346	180.42247	501.01208	62.25723	180.11061	288.82159	64.53735	161.54953	263.68802	77.75253	104.62003	331.39551	47.02702	50.57239
898	3.58800	798.81372	988.95959	324.06174	611.36188	944.65881	436.95944	812.21521	699.97437	485.74374	815.17035	656.51660	488.97705	753.96619	688.27142	507.21426	765.14490	646.65771	504.83087	815.01782	474.20734	487.14899	812.46021	468.82748	387.40854	891.93384	406.27600	495.28928	914.68378	368.42102	500.65997	842.48767	372.44489	489.48099	869.88586	337.17719	493.81604	1002.35492	155.20050	502.10196	1007.17322	159.93579	411.61743	1101.21741	136.77481	454.92950	908.53125	49.02298	522.58429	861.69366	52.79230	456.65604	0.00000	0.00000	0.00000	789.46893	989.34485	241.66458	601.15204	945.20795	141.69516	536.65820	600.31464	73.41247	513.32208	566.41699	80.54316	490.67950	631.43781	101.42339	0.00000	0.00000	0.00000	528.35693	514.12726	81.54382	509.86465	491.27393	223.73325	495.74466	252.29315	72.42850	485.41925	206.37178	80.01096	433.86832	261.39691	81.90956	0.00000	0.00000	0.00000	459.76404	101.94962	97.50735	411.33807	130.96631	180.06995	501.04974	62.77075	179.85823	289.20496	63.67678	160.98676	263.83362	77.32076	104.26705	331.32288	46.73434	50.48389
899	3.59200	794.31366	989.46576	323.26913	606.70673	945.18481	435.84061	806.90448	699.85358	484.76343	809.60583	656.30359	488.17252	748.63123	688.12354	506.62827	759.54651	646.81403	503.98633	808.66351	474.07526	486.67157	805.95984	468.50150	386.98770	888.32806	408.60965	495.48807	907.70496	367.53220	499.61081	837.37201	372.53583	489.02457	865.58356	337.22565	493.49408	999.76373	157.52269	501.45883	1004.09918	161.55246	410.62817	1098.86987	140.66154	454.12985	907.87433	49.77878	522.47632	861.04614	52.59068	456.50504	0.00000	0.00000	0.00000	784.98608	990.22821	240.86377	596.68793	945.95551	140.89532	530.63763	601.78162	71.85592	507.60092	567.88123	79.24114	484.52374	632.80573	99.89682	0.00000	0.00000	0.00000	522.30548	515.15948	80.36285	504.28650	492.58215	222.45671	493.42853	253.05675	71.64087	483.65662	207.05586	79.49769	431.45773	261.41479	81.63708	431.09775	212.56546	83.30650	459.41028	102.20829	97.42119	410.53796	131.04407	179.82416	500.91284	63.17175	179.61217	288.86172	63.25443	160.80016	263.41113	76.59612	104.13822	331.11334	46.44227	50.30611
900	3.59600	789.68097	990.03729	322.40341	602.17316	945.78961	434.88159	801.48364	699.73260	483.79086	803.93683	656.17010	487.28568	743.16602	688.72943	505.40683	753.91180	647.02051	503.18619	802.00690	473.93060	486.16501	799.21130	468.15442	386.48975	882.27600	409.22391	495.19690	903.23376	369.44925	498.90674	832.16083	372.81537	488.65161	860.66711	337.60056	492.81100	996.82562	159.51352	501.01416	1001.39777	164.49091	410.13666	1096.36951	144.81912	453.26477	906.82275	49.97897	522.39307	860.35126	52.34097	456.46442	0.00000	0.00000	0.00000	780.50537	991.21326	240.02771	592.15564	947.14331	139.95685	524.70380	602.96356	70.34422	503.90100	570.18091	77.37576	478.53232	634.07751	98.10514	0.00000	0.00000	0.00000	516.84204	516.34332	79.43239	498.02853	493.83905	221.11304	491.16397	254.02049	71.30867	482.08197	207.96555	79.16242	429.14987	261.59912	81.48065	0.00000	0.00000	0.00000	459.00430	102.68519	97.35447	409.55933	131.19839	179.56653	500.59210	63.56792	179.38744	288.52304	62.78594	160.56854	262.71783	75.43899	104.30467	330.94424	46.08754	50.06333
901	3.60000	785.25525	990.80994	321.49890	597.72058	946.52936	433.82336	796.03302	699.65967	482.83920	798.15088	656.04993	486.39362	737.65906	688.76843	504.74988	748.06500	647.25671	502.27399	795.08569	473.81424	485.70486	792.19220	467.86398	386.01511	876.29724	410.18695	494.60333	898.83636	372.05081	498.78195	826.68805	373.12543	488.27954	855.43427	339.08649	492.46527	994.07635	162.79915	500.12134	998.18420	167.00890	409.28735	1093.50757	149.23378	452.41125	906.28796	51.47236	522.05536	859.49768	52.22908	456.27618	0.00000	0.00000	0.00000	776.13031	992.28271	239.15300	587.72906	948.40698	138.96416	519.19794	603.90057	68.93610	496.52884	569.85126	77.29702	472.96417	635.32587	95.96864	0.00000	0.00000	0.00000	511.50195	517.38391	78.68535	491.52359	495.27170	219.78986	488.86316	255.06377	71.32193	480.27325	208.90411	79.07395	426.68378	261.87036	81.10342	428.34619	214.04201	81.94017	458.32339	103.12289	97.16052	408.34695	131.38644	179.34042	500.32562	64.10326	179.25502	287.98151	63.08022	159.55872	262.57889	75.56671	103.84380	330.70337	45.76598	49.89220
